<svg width="693" height="767" viewBox="0 0 693 767" fill="none" xmlns="http://www.w3.org/2000/svg">
<path d="M346.5 767C537.867 767 693 664.78 693 538.686C693 412.591 537.867 310.371 346.5 310.371C155.133 310.371 0 412.591 0 538.686C0 664.78 155.133 767 346.5 767Z" fill="#060B26"/>
<path d="M545.494 617.906C522.772 602.935 522.772 578.665 545.494 563.693C568.215 548.722 605.055 548.722 627.777 563.693C650.498 578.665 650.498 602.935 627.777 617.906C605.055 632.878 568.215 632.878 545.494 617.906Z" fill="#E0E0E0"/>
<path d="M83.3564 619.988L23.5892 580.612C20.2214 578.397 20.2214 574.788 23.5892 572.573L371.236 343.503C373.126 342.41 375.214 341.841 377.332 341.841C379.45 341.841 381.539 342.41 383.428 343.503L443.21 382.878C446.578 385.094 446.578 388.703 443.21 390.918L95.5628 619.988C93.6709 621.081 91.5801 621.65 89.4596 621.65C87.3391 621.65 85.2484 621.081 83.3564 619.988Z" fill="#E0E0E0"/>
<path d="M298.189 549.797L349.574 515.893C354.868 512.401 357.516 507.836 357.516 503.254C357.516 498.672 357.516 495.097 357.516 495.097L304.219 460.79C302.73 459.691 301.491 458.206 300.601 456.456C299.712 454.706 299.198 452.74 299.101 450.72V378.397L209.392 437.578V509.867C209.495 511.886 210.012 513.848 210.901 515.597C211.79 517.346 213.026 518.833 214.509 519.938L259.864 549.746C270.424 556.779 287.601 556.779 298.189 549.797Z" fill="#2A54C1"/>
<g opacity="0.6">
<path d="M298.189 549.797L349.574 515.893C354.868 512.401 357.516 507.836 357.516 503.254C357.516 498.672 357.516 495.097 357.516 495.097L304.219 460.79C302.73 459.691 301.491 458.206 300.601 456.456C299.712 454.706 299.198 452.74 299.101 450.72V378.397L209.392 437.578V509.867C209.495 511.886 210.012 513.848 210.901 515.597C211.79 517.346 213.026 518.833 214.509 519.938L259.864 549.746C270.424 556.779 287.601 556.779 298.189 549.797Z" fill="#455A64"/>
</g>
<path opacity="0.3" d="M230.907 522.674V530.797L214.465 519.971C212.981 518.868 211.746 517.381 210.86 515.632C209.973 513.882 209.46 511.919 209.362 509.901V437.578L226.451 426.316C226.804 431.267 227.186 436.386 227.554 441.422L215.538 449.31V505.789C215.634 507.809 216.147 509.776 217.037 511.526C217.926 513.277 219.167 514.762 220.656 515.859L230.907 522.674Z" fill="#455A64"/>
<path d="M215.539 505.806C215.64 507.825 216.156 509.788 217.045 511.538C217.934 513.287 219.171 514.773 220.657 515.876L259.805 541.623C270.394 548.588 287.571 548.605 298.175 541.623L349.647 507.719C360.251 500.737 360.251 489.424 349.647 482.442L310.469 456.695C308.987 455.59 307.753 454.102 306.867 452.353C305.981 450.604 305.467 448.642 305.366 446.625V390.129L215.656 449.31L215.539 505.806Z" fill="#2A54C1"/>
<path opacity="0.3" d="M215.539 505.806C215.64 507.825 216.156 509.788 217.045 511.538C217.934 513.287 219.171 514.773 220.657 515.876L259.805 541.623C270.394 548.588 287.571 548.605 298.175 541.623L349.647 507.719C360.251 500.737 360.251 489.424 349.647 482.442L310.469 456.695C308.987 455.59 307.753 454.102 306.867 452.353C305.981 450.604 305.467 448.642 305.366 446.625V390.129L215.656 449.31L215.539 505.806Z" fill="#FAFF12"/>
<path opacity="0.5" d="M320.837 463.593L310.41 456.729C308.928 455.623 307.695 454.136 306.808 452.387C305.922 450.638 305.408 448.676 305.307 446.658V390.129L215.598 449.31V505.806C215.699 507.825 216.215 509.788 217.104 511.538C217.993 513.287 219.23 514.773 220.715 515.876L231.01 522.59L320.837 463.593Z" fill="#455A64"/>
<path d="M357.53 495.114V503.271C357.53 507.853 354.868 512.401 349.589 515.909L298.116 549.796C292.483 553.228 286.192 555.01 279.806 554.983V546.859C286.192 546.887 292.483 545.104 298.116 541.673L349.589 507.752C354.868 504.278 357.53 499.696 357.53 495.114Z" fill="#2A54C1"/>
<path opacity="0.5" d="M357.53 495.114V503.271C357.53 507.853 354.868 512.401 349.589 515.909L298.116 549.796C292.483 553.228 286.192 555.01 279.806 554.983V546.859C286.192 546.887 292.483 545.104 298.116 541.673L349.589 507.752C354.868 504.278 357.53 499.696 357.53 495.114Z" fill="#455A64"/>
<path d="M71.4151 576.013C73.3545 577.082 75.4868 577.617 77.6402 577.573C79.7936 577.529 81.9079 576.909 83.8127 575.762L430.886 347.078C432.747 345.693 434.296 343.826 435.408 341.631C436.519 339.435 437.162 336.971 437.284 334.439V13.9969C437.217 11.5336 436.642 9.12309 435.604 6.96179C434.566 4.8005 433.096 2.94957 431.313 1.55985C429.376 0.489622 427.245 -0.043845 425.093 0.00281783C422.941 0.0494807 420.83 0.674956 418.93 1.8284L71.8563 230.579C70.0018 231.973 68.4623 233.848 67.3633 236.05C66.2643 238.252 65.637 240.72 65.5325 243.251V563.643C65.5981 566.086 66.1644 568.478 67.186 570.626C68.2076 572.774 69.656 574.619 71.4151 576.013Z" fill="#2A54C1"/>
<path d="M83.8564 575.745L430.93 347.061C432.793 345.679 434.344 343.814 435.456 341.617C436.568 339.421 437.209 336.956 437.327 334.423V13.9971C437.327 9.34786 434.46 7.45125 430.93 9.78425L83.8564 238.468C81.9946 239.852 80.445 241.718 79.3335 243.914C78.222 246.11 77.5798 248.574 77.4591 251.106V571.532C77.4591 576.181 80.3269 578.078 83.8564 575.745Z" fill="#2A54C1"/>
<path opacity="0.5" d="M83.8564 575.745L430.93 347.061C432.793 345.679 434.344 343.814 435.456 341.617C436.568 339.421 437.209 336.956 437.327 334.423V13.9971C437.327 9.34786 434.46 7.45125 430.93 9.78425L83.8564 238.468C81.9946 239.852 80.445 241.718 79.3335 243.914C78.222 246.11 77.5798 248.574 77.4591 251.106V571.532C77.4591 576.181 80.3269 578.078 83.8564 575.745Z" fill="#455A64"/>
<path d="M82.9151 584.07C81.0951 584.977 79.1245 585.422 77.1391 585.376C75.1537 585.329 73.2006 584.792 71.4146 583.801C69.6516 582.404 68.2008 580.554 67.179 578.399C66.1572 576.245 65.5931 573.847 65.532 571.398V542.227L77.5178 550.149V579.32C77.4443 583.566 79.8121 585.497 82.9151 584.07Z" fill="#2A54C1"/>
<path opacity="0.5" d="M82.9151 584.07C81.0951 584.977 79.1245 585.422 77.1391 585.376C75.1537 585.329 73.2006 584.792 71.4146 583.801C69.6516 582.404 68.2008 580.554 67.179 578.399C66.1572 576.245 65.5931 573.847 65.532 571.398V542.227L77.5178 550.149V579.32C77.4443 583.566 79.8121 585.497 82.9151 584.07Z" fill="#455A64"/>
<path d="M77.4443 550.149V579.32C77.4443 583.969 80.3856 585.849 83.8417 583.533L430.915 354.849C432.768 353.47 434.313 351.615 435.424 349.431C436.535 347.248 437.182 344.798 437.312 342.278V312.972L77.4443 550.149Z" fill="#2A54C1"/>
<path opacity="0.3" d="M77.4591 550.082V579.32C77.4591 583.969 80.4004 585.849 83.8564 583.533L430.93 354.849C432.781 353.468 434.322 351.612 435.43 349.429C436.539 347.246 437.183 344.796 437.313 342.278V312.972L77.4591 550.082Z" fill="#455A64"/>
<path d="M89.4449 513.476V255.655C89.5134 254.136 89.8955 252.657 90.56 251.338C91.2244 250.02 92.1526 248.899 93.2686 248.068L421.43 31.7713C423.547 30.3782 425.268 31.5027 425.268 34.2889V292.244C425.197 293.764 424.812 295.244 424.145 296.562C423.478 297.88 422.548 299 421.43 299.831L93.2833 516.077C91.1656 517.47 89.4449 516.329 89.4449 513.476Z" fill="#2A54C1"/>
<path d="M89.4449 513.476V255.655C89.5134 254.136 89.8955 252.657 90.56 251.338C91.2244 250.02 92.1526 248.899 93.2686 248.068L421.43 31.7713C423.547 30.3782 425.268 31.5027 425.268 34.2889V292.244C425.197 293.764 424.812 295.244 424.145 296.562C423.478 297.88 422.548 299 421.43 299.831L93.2833 516.077C91.1656 517.47 89.4449 516.329 89.4449 513.476Z" fill="#263238"/>
<path d="M257.379 440.851C255.632 442.148 254.178 443.897 253.135 445.956C252.093 448.015 251.491 450.326 251.378 452.701C251.378 457.064 254.07 458.844 257.379 456.662C259.127 455.363 260.583 453.612 261.625 451.549C262.668 449.487 263.269 447.173 263.379 444.795C263.379 440.431 260.688 438.669 257.379 440.851Z" fill="#2A54C1"/>
<path opacity="0.7" d="M79.3415 243.889C78.2017 246.075 77.5502 248.548 77.4443 251.089V550.149L65.532 542.227V243.251C65.6092 240.701 66.2573 238.217 67.4145 236.034L79.3415 243.889Z" fill="#455A64"/>
<path opacity="0.3" d="M437.254 12.7886C436.798 9.02897 434.136 7.75339 430.915 9.78426L83.8417 238.468C81.9599 239.811 80.4067 241.676 79.3268 243.889L67.3263 235.984C68.4134 233.772 69.9711 231.907 71.8559 230.563L418.929 1.89572C420.832 0.74212 422.946 0.116615 425.1 0.0699559C427.254 0.0232971 429.388 0.556799 431.327 1.62718C432.957 2.89498 434.33 4.54754 435.353 6.47313C436.375 8.39871 437.024 10.5524 437.254 12.7886Z" fill="#455A64"/>
<path d="M455.975 52.2314C455.46 51.9362 454.884 51.8068 454.308 51.857C453.733 51.9073 453.181 52.1354 452.711 52.5168L125.226 268.428C123.934 269.403 122.861 270.712 122.095 272.249C121.328 273.786 120.89 275.507 120.814 277.273V533.516C120.768 534.381 120.919 535.245 121.251 536.024C121.584 536.804 122.086 537.472 122.711 537.964C123.432 538.417 127.285 540.968 128.432 541.673C128.838 541.909 129.291 542.018 129.746 541.989C130.201 541.959 130.641 541.792 131.021 541.506L458.431 325.595C459.724 324.619 460.796 323.31 461.563 321.773C462.329 320.236 462.768 318.515 462.843 316.749V59.1801C462.909 58.5292 462.815 57.8703 462.57 57.2773C462.326 56.6844 461.942 56.1808 461.461 55.8232C460.726 55.2694 456.799 52.7853 455.975 52.2314Z" fill="#2A54C1"/>
<path d="M130.947 272.053L458.446 56.226C460.917 54.5476 462.858 55.9239 462.858 59.18V316.749C462.783 318.515 462.344 320.236 461.578 321.773C460.811 323.31 459.738 324.619 458.446 325.594L130.947 541.505C128.476 543.184 126.535 540.482 126.535 537.225V280.898C126.613 279.133 127.052 277.413 127.819 275.876C128.585 274.34 129.656 273.031 130.947 272.053Z" fill="#FAFAFA"/>
<path d="M460.446 57.1992C461.314 57.1992 461.446 58.4412 461.446 59.1797V316.749C461.367 318.228 460.987 319.665 460.336 320.947C459.685 322.229 458.781 323.32 457.696 324.134L130.241 540.045C130.021 540.208 129.767 540.3 129.506 540.314C128.682 540.314 128.035 538.87 128.035 537.225V280.898C128.106 279.42 128.475 277.98 129.112 276.69C129.75 275.401 130.639 274.296 131.712 273.463L459.181 57.6691C459.56 57.3901 459.996 57.2282 460.446 57.1992ZM460.446 55.5208C459.737 55.5552 459.049 55.798 458.446 56.2257L130.947 272.053C129.656 273.03 128.585 274.34 127.819 275.876C127.052 277.412 126.613 279.132 126.535 280.898V537.225C126.535 539.81 127.8 541.992 129.476 541.992C129.996 541.981 130.503 541.813 130.947 541.505L458.431 325.594C459.724 324.619 460.796 323.309 461.563 321.773C462.329 320.236 462.768 318.515 462.843 316.749V59.1797C462.843 56.8635 461.843 55.5208 460.373 55.5208H460.446Z" fill="#E0E0E0"/>
<path d="M122.623 537.964C123.108 538.249 126.594 540.515 128.123 541.522C127.574 541.002 127.139 540.343 126.853 539.597C126.567 538.851 126.438 538.039 126.476 537.225V297.632L120.741 293.805V533.516C120.693 534.38 120.841 535.242 121.171 536.021C121.501 536.801 122.001 537.47 122.623 537.964Z" fill="#F0F0F0"/>
<path d="M462.917 59.1294C462.917 55.9068 460.902 54.5977 458.505 56.2257L130.947 272.053C129.656 273.03 128.585 274.34 127.819 275.876C127.052 277.412 126.613 279.133 126.535 280.898V297.682L462.917 75.9135V59.1294Z" fill="#2A54C1"/>
<g opacity="0.4">
<path d="M458.446 56.2257L130.947 272.036C129.633 272.982 128.55 274.293 127.8 275.846L122.108 272.07C122.857 270.571 123.931 269.317 125.226 268.427L452.711 52.5164C453.179 52.1323 453.731 51.9013 454.306 51.848C454.882 51.7948 455.459 51.9214 455.975 52.2143C456.77 52.7849 460.49 55.1851 461.446 55.7725C460.952 55.5632 460.42 55.4951 459.897 55.5741C459.374 55.6531 458.876 55.8768 458.446 56.2257Z" fill="white"/>
</g>
<path opacity="0.15" d="M120.741 293.822V277.189C120.801 275.376 121.272 273.612 122.108 272.07L127.815 275.829C126.99 277.345 126.529 279.081 126.476 280.864V297.649L120.741 293.822Z" fill="#00BE13"/>
<path d="M393.855 252.348L197.715 381.586C196.761 382.293 195.966 383.246 195.397 384.369C194.827 385.492 194.497 386.752 194.435 388.048V452.231C194.497 453.526 194.827 454.787 195.397 455.91C195.966 457.033 196.761 457.986 197.715 458.692L203.435 462.452C204.452 463.039 205.575 463.345 206.715 463.345C207.854 463.345 208.978 463.039 209.994 462.452L406.106 333.214C407.06 332.504 407.854 331.548 408.424 330.422C408.994 329.297 409.323 328.034 409.385 326.736V262.536C409.323 261.241 408.993 259.98 408.424 258.857C407.854 257.734 407.059 256.781 406.106 256.074L400.37 252.315C399.358 251.737 398.241 251.44 397.109 251.445C395.977 251.451 394.863 251.761 393.855 252.348Z" fill="#2A54C1"/>
<path opacity="0.5" d="M409.385 261.965C409.15 260.035 407.782 259.33 406.135 260.421L209.994 389.659C209.027 390.345 208.231 391.305 207.685 392.445L195.405 384.355C195.956 383.233 196.745 382.286 197.699 381.603L393.855 252.365C394.869 251.777 395.99 251.47 397.127 251.47C398.264 251.47 399.386 251.777 400.399 252.365L406.135 256.125C407.009 256.779 407.751 257.638 408.312 258.645C408.872 259.652 409.238 260.784 409.385 261.965Z" fill="white"/>
<path d="M209.436 462.771C208.475 463.203 207.446 463.399 206.415 463.347C205.383 463.295 204.373 462.996 203.45 462.469L197.715 458.709C196.762 458.001 195.969 457.047 195.4 455.924C194.83 454.802 194.5 453.542 194.435 452.247V388.065C194.479 386.754 194.813 385.478 195.406 384.355L207.686 392.445C207.089 393.554 206.754 394.82 206.715 396.121V460.32C206.715 462.452 207.891 463.442 209.436 462.771Z" fill="#263238"/>
<path d="M209.994 389.659L406.135 260.421C407.944 259.23 409.415 260.186 409.415 262.57V326.769C409.352 328.067 409.023 329.33 408.453 330.455C407.883 331.581 407.089 332.538 406.135 333.248L210.024 462.485C208.215 463.677 206.744 462.704 206.744 460.32V396.138C206.803 394.843 207.128 393.582 207.693 392.456C208.257 391.331 209.046 390.373 209.994 389.659Z" fill="#2A54C1"/>
<path d="M341.853 286.622L197.729 381.603C196.774 382.286 195.985 383.233 195.435 384.356L207.715 392.446C208.261 391.305 209.056 390.345 210.024 389.659L354.147 294.695L341.853 286.622Z" fill="#455A64"/>
<path d="M354.118 294.695L209.994 389.659C209.04 390.369 208.246 391.326 207.676 392.451C207.106 393.577 206.777 394.84 206.715 396.138V460.304C206.715 462.687 208.185 463.66 209.994 462.469L354.118 367.504V294.695Z" fill="#37474F"/>
<path d="M243.231 381.838L317.602 332.845C320.676 330.814 323.176 332.257 323.176 336.067C323.038 338.207 322.461 340.28 321.49 342.117C320.519 343.954 319.182 345.505 317.588 346.641L243.231 395.651C240.158 397.682 237.643 396.239 237.643 392.429C237.782 390.287 238.36 388.212 239.331 386.373C240.301 384.533 241.638 382.979 243.231 381.838Z" fill="#2A54C1"/>
<path d="M258.467 398.068C258.481 398.05 258.498 398.035 258.517 398.026C258.536 398.016 258.556 398.011 258.577 398.011C258.598 398.011 258.619 398.016 258.638 398.026C258.657 398.035 258.674 398.05 258.687 398.068C258.753 398.182 258.784 398.317 258.776 398.454V408.004C258.777 408.926 258.708 409.847 258.57 410.756C258.448 411.587 258.241 412.398 257.952 413.173C257.689 413.883 257.342 414.549 256.923 415.154C256.509 415.714 256.011 416.186 255.452 416.547C255.014 416.872 254.504 417.047 253.981 417.05C253.782 417.032 253.587 416.968 253.41 416.861C253.233 416.754 253.077 416.607 252.952 416.429C252.629 415.936 252.417 415.36 252.334 414.751C252.194 413.939 252.129 413.112 252.143 412.284V402.717C252.143 402.549 252.173 402.384 252.231 402.23C252.267 402.092 252.346 401.973 252.452 401.894L253.378 401.273C253.408 401.241 253.448 401.224 253.489 401.224C253.53 401.224 253.569 401.241 253.599 401.273C253.667 401.386 253.698 401.523 253.687 401.659V411.092C253.676 411.611 253.72 412.13 253.82 412.636C253.86 412.96 253.983 413.264 254.173 413.509C254.239 413.599 254.322 413.67 254.417 413.717C254.511 413.763 254.614 413.784 254.717 413.778C254.968 413.759 255.211 413.666 255.423 413.509C255.684 413.331 255.922 413.11 256.129 412.854C256.358 412.553 256.546 412.213 256.687 411.847C256.853 411.417 256.977 410.966 257.055 410.505C257.141 409.951 257.18 409.389 257.173 408.826V399.377C257.177 399.208 257.212 399.042 257.276 398.89C257.312 398.752 257.39 398.633 257.496 398.554L258.467 398.068Z" fill="#FAFAFA"/>
<path d="M264.232 407.098C264.24 406.975 264.214 406.852 264.158 406.746C264.123 406.702 264.08 406.669 264.031 406.648C263.983 406.628 263.93 406.621 263.879 406.628C263.698 406.6 263.515 406.6 263.335 406.628L262.482 406.813C262.207 406.891 261.919 406.891 261.644 406.813C261.428 406.734 261.241 406.574 261.114 406.36C260.97 406.087 260.875 405.785 260.835 405.47C260.691 404.571 260.691 403.65 260.835 402.751C260.945 402.236 261.103 401.735 261.305 401.258C261.507 400.781 261.753 400.33 262.041 399.915C262.319 399.519 262.658 399.183 263.041 398.924C263.35 398.709 263.696 398.572 264.055 398.522C264.316 398.491 264.579 398.555 264.805 398.706C265.021 398.856 265.191 399.079 265.291 399.344C265.409 399.657 265.474 399.993 265.482 400.334C265.497 400.503 265.466 400.673 265.394 400.821C265.358 400.959 265.279 401.079 265.173 401.157L264.291 401.744C264.25 401.771 264.205 401.785 264.158 401.785C264.112 401.785 264.066 401.771 264.026 401.744L263.835 401.576C263.759 401.508 263.667 401.467 263.57 401.459C263.381 401.483 263.2 401.558 263.041 401.677C262.81 401.836 262.606 402.041 262.438 402.281C262.26 402.546 262.166 402.871 262.173 403.204C262.152 403.332 262.152 403.463 262.173 403.59C262.201 403.638 262.238 403.678 262.281 403.707C262.325 403.736 262.373 403.753 262.423 403.758C262.584 403.789 262.748 403.789 262.908 403.758L263.732 403.59C264.423 403.439 264.894 403.59 265.203 404.027C265.527 404.649 265.676 405.369 265.629 406.091C265.625 406.59 265.566 407.086 265.453 407.568C265.336 408.092 265.169 408.598 264.953 409.079C264.736 409.576 264.465 410.039 264.144 410.455C263.839 410.863 263.476 411.209 263.07 411.479C262.747 411.715 262.379 411.859 261.996 411.899C261.72 411.91 261.447 411.822 261.217 411.647C260.99 411.47 260.816 411.218 260.717 410.925C260.598 410.607 260.538 410.264 260.541 409.918C260.527 409.744 260.557 409.569 260.629 409.415C260.665 409.276 260.743 409.157 260.849 409.079L261.732 408.491C261.849 408.491 261.938 408.408 261.996 408.491L262.188 408.726C262.227 408.776 262.274 408.817 262.327 408.846C262.38 408.875 262.438 408.891 262.497 408.894C262.704 408.895 262.905 408.819 263.07 408.676C263.336 408.504 263.574 408.283 263.776 408.022C263.876 407.883 263.96 407.731 264.026 407.568C264.13 407.435 264.201 407.273 264.232 407.098Z" fill="#FAFAFA"/>
<path d="M267.232 402.55C267.229 401.678 267.293 400.808 267.423 399.949C267.546 399.14 267.738 398.348 267.997 397.582C268.213 396.896 268.51 396.247 268.879 395.652C269.187 395.141 269.589 394.711 270.056 394.393C270.397 394.132 270.812 394.029 271.217 394.108C271.577 394.203 271.892 394.448 272.1 394.796C272.377 395.251 272.572 395.765 272.673 396.306C272.814 397.011 272.884 397.732 272.879 398.455V399.495C272.884 399.671 272.849 399.844 272.776 399.999C272.74 400.137 272.662 400.256 272.556 400.335L268.732 402.869C268.723 403.165 268.758 403.46 268.835 403.742C268.892 403.932 268.994 404.1 269.129 404.229C269.25 404.338 269.402 404.392 269.556 404.38C269.733 404.356 269.904 404.287 270.056 404.178C270.278 404.04 270.477 403.859 270.644 403.641C270.794 403.448 270.923 403.233 271.026 403.003C271.089 402.871 271.158 402.742 271.232 402.617C271.295 402.532 271.37 402.458 271.453 402.399L272.365 401.795C272.396 401.766 272.435 401.751 272.475 401.751C272.515 401.751 272.554 401.766 272.585 401.795C272.624 401.848 272.652 401.91 272.667 401.977C272.682 402.043 272.684 402.113 272.673 402.181C272.657 402.508 272.598 402.831 272.497 403.138C272.37 403.603 272.203 404.053 271.997 404.48C271.767 404.972 271.491 405.433 271.173 405.857C270.857 406.289 270.479 406.658 270.056 406.948C269.708 407.207 269.292 407.32 268.879 407.266C268.518 407.167 268.202 406.915 267.997 406.562C267.707 406.053 267.512 405.481 267.423 404.883C267.29 404.115 267.225 403.333 267.232 402.55ZM270.056 397.196C269.83 397.335 269.634 397.53 269.482 397.767C269.319 398.002 269.185 398.262 269.085 398.539C268.982 398.816 268.898 399.102 268.835 399.395C268.783 399.66 268.749 399.929 268.732 400.2L271.32 398.522C271.305 398.29 271.276 398.06 271.232 397.834C271.21 397.631 271.138 397.439 271.026 397.28C270.982 397.207 270.926 397.146 270.86 397.1C270.794 397.054 270.72 397.024 270.644 397.011C270.435 396.991 270.226 397.057 270.056 397.196Z" fill="#FAFAFA"/>
<path d="M277.497 392.513C277.052 392.803 276.701 393.251 276.497 393.789C276.268 394.497 276.163 395.25 276.188 396.004V402.063C276.191 402.236 276.16 402.408 276.1 402.567C276.064 402.705 275.986 402.824 275.88 402.902L275.012 403.473C274.998 403.491 274.981 403.505 274.962 403.515C274.943 403.525 274.922 403.53 274.902 403.53C274.881 403.53 274.86 403.525 274.841 403.515C274.822 403.505 274.805 403.491 274.791 403.473C274.725 403.359 274.694 403.223 274.703 403.087V392.228C274.704 392.055 274.734 391.884 274.791 391.724C274.832 391.589 274.91 391.472 275.012 391.389L275.88 390.818C275.91 390.786 275.949 390.768 275.99 390.768C276.031 390.768 276.07 390.786 276.1 390.818C276.168 390.924 276.2 391.056 276.188 391.187V391.724C276.364 391.274 276.581 390.846 276.836 390.449C277.068 390.081 277.37 389.777 277.718 389.559L278.247 389.207C278.275 389.176 278.312 389.159 278.35 389.159C278.389 389.159 278.426 389.176 278.453 389.207C278.524 389.319 278.56 389.455 278.556 389.593V391.12C278.554 391.294 278.519 391.466 278.453 391.624C278.416 391.757 278.344 391.874 278.247 391.959L277.497 392.513Z" fill="#FAFAFA"/>
<path d="M288.469 391.707C288.482 391.689 288.499 391.675 288.518 391.665C288.537 391.655 288.558 391.65 288.579 391.65C288.6 391.65 288.62 391.655 288.639 391.665C288.658 391.675 288.675 391.689 288.689 391.707C288.755 391.821 288.786 391.956 288.778 392.093V393.771C288.777 393.944 288.747 394.115 288.689 394.275C288.639 394.399 288.563 394.509 288.469 394.594L283.439 397.95C283.409 397.982 283.37 398 283.329 398C283.288 398 283.248 397.982 283.218 397.95C283.153 397.843 283.122 397.712 283.13 397.581V382.475C283.131 382.303 283.161 382.132 283.218 381.972C283.26 381.841 283.337 381.729 283.439 381.653L284.366 381.032C284.396 381 284.435 380.982 284.476 380.982C284.517 380.982 284.556 381 284.586 381.032C284.652 381.14 284.683 381.27 284.674 381.401V394.174L288.469 391.707Z" fill="#FAFAFA"/>
<path d="M292.983 379.287C293.314 379.025 293.714 378.901 294.115 378.934C294.46 378.965 294.781 379.145 295.013 379.438C295.287 379.797 295.488 380.221 295.601 380.68C295.758 381.274 295.847 381.889 295.866 382.509C295.866 382.644 295.866 382.828 295.866 383.046V384.339C295.866 384.54 295.866 384.725 295.866 384.876C295.836 385.605 295.748 386.33 295.601 387.041C295.465 387.733 295.268 388.408 295.013 389.055C294.779 389.657 294.478 390.221 294.115 390.734C293.805 391.198 293.421 391.59 292.983 391.892C292.643 392.144 292.241 392.267 291.836 392.244C291.496 392.211 291.181 392.031 290.954 391.741C290.672 391.394 290.469 390.973 290.365 390.515C290.208 389.921 290.119 389.306 290.101 388.686C290.101 388.552 290.101 388.384 290.101 388.166V386.873C290.101 386.655 290.101 386.47 290.101 386.336C290.118 385.601 290.202 384.87 290.351 384.154C290.494 383.457 290.696 382.776 290.954 382.123C291.187 381.525 291.484 380.962 291.836 380.445C292.148 379.976 292.538 379.583 292.983 379.287ZM294.365 383.617C294.365 383.246 294.31 382.877 294.204 382.526C294.149 382.312 294.036 382.124 293.88 381.989C293.755 381.893 293.604 381.851 293.454 381.872C293.286 381.908 293.126 381.982 292.983 382.09C292.81 382.198 292.652 382.333 292.512 382.493C292.344 382.693 292.2 382.919 292.086 383.164C291.938 383.469 291.829 383.797 291.762 384.137C291.666 384.566 291.607 385.005 291.586 385.447C291.586 385.581 291.586 385.732 291.586 385.916V387.108C291.586 387.293 291.586 387.444 291.586 387.545C291.6 387.916 291.659 388.283 291.762 388.636C291.816 388.85 291.93 389.039 292.086 389.173C292.147 389.222 292.217 389.256 292.29 389.274C292.363 389.291 292.439 389.291 292.512 389.273C292.679 389.241 292.839 389.173 292.983 389.072C293.154 388.96 293.312 388.824 293.454 388.669C293.618 388.465 293.761 388.239 293.88 387.998C294.022 387.689 294.13 387.362 294.204 387.024C294.3 386.596 294.354 386.157 294.365 385.715C294.374 385.559 294.374 385.402 294.365 385.245V384.07C294.374 383.919 294.374 383.768 294.365 383.617Z" fill="#FAFAFA"/>
<path d="M300.366 389.106C300.554 388.974 300.723 388.81 300.866 388.619C301.043 388.382 301.196 388.123 301.322 387.847C301.468 387.509 301.582 387.155 301.66 386.789C301.751 386.378 301.795 385.955 301.793 385.53V384.675C301.793 384.842 301.646 385.044 301.543 385.279C301.442 385.524 301.324 385.76 301.19 385.984C301.036 386.22 300.869 386.444 300.69 386.655C300.505 386.876 300.292 387.063 300.057 387.209C299.906 387.327 299.736 387.408 299.556 387.448C299.377 387.489 299.192 387.487 299.013 387.444C298.686 387.327 298.405 387.084 298.219 386.756C297.979 386.322 297.805 385.845 297.704 385.346C297.579 384.712 297.51 384.065 297.498 383.416C297.498 383.198 297.498 382.929 297.498 382.61C297.498 382.291 297.498 382.023 297.498 381.788C297.517 381.05 297.586 380.315 297.704 379.589C297.825 378.875 297.997 378.173 298.219 377.491C298.427 376.899 298.693 376.336 299.013 375.812C299.284 375.35 299.641 374.96 300.057 374.671C300.253 374.537 300.466 374.441 300.69 374.386C300.855 374.351 301.024 374.351 301.19 374.386C301.32 374.428 301.441 374.502 301.543 374.604C301.637 374.686 301.721 374.782 301.793 374.889V374.352C301.793 374.18 301.823 374.009 301.881 373.849C301.922 373.718 301.999 373.606 302.101 373.53L302.969 372.942C302.999 372.911 303.038 372.893 303.079 372.893C303.12 372.893 303.16 372.911 303.19 372.942C303.261 373.054 303.297 373.19 303.293 373.328V384.238C303.332 385.872 303.067 387.497 302.513 389.005C302.079 390.191 301.328 391.189 300.366 391.858C300.038 392.091 299.663 392.223 299.278 392.244C298.973 392.265 298.669 392.177 298.41 391.992C298.162 391.78 297.96 391.504 297.822 391.187C297.678 390.804 297.599 390.394 297.587 389.978C297.573 389.804 297.603 389.629 297.675 389.475C297.711 389.336 297.789 389.217 297.895 389.139L298.675 388.636C298.693 388.614 298.714 388.596 298.738 388.584C298.762 388.572 298.788 388.566 298.815 388.566C298.841 388.566 298.867 388.572 298.891 388.584C298.915 388.596 298.936 388.614 298.954 388.636C299.027 388.723 299.091 388.818 299.145 388.921C299.235 389.101 299.383 389.233 299.557 389.29C299.734 389.441 299.998 389.273 300.366 389.106ZM298.984 380.965C298.984 381.413 298.984 381.849 298.984 382.274C298.942 382.945 299.108 383.61 299.454 384.154C299.585 384.283 299.752 384.354 299.925 384.354C300.098 384.354 300.265 384.283 300.395 384.154C300.822 383.838 301.155 383.381 301.351 382.845C301.619 382.145 301.769 381.393 301.793 380.63C301.793 380.378 301.793 380.076 301.793 379.723C301.793 379.371 301.793 379.069 301.793 378.85C301.823 378.249 301.666 377.655 301.351 377.172C301.221 377.035 301.05 376.959 300.873 376.959C300.696 376.959 300.526 377.035 300.395 377.172C299.977 377.487 299.65 377.937 299.454 378.464C299.152 379.254 298.992 380.104 298.984 380.965Z" fill="#FAFAFA"/>
<path d="M306.719 366.061C306.748 366.034 306.785 366.019 306.822 366.019C306.86 366.019 306.896 366.034 306.925 366.061C307.002 366.17 307.039 366.308 307.028 366.447V368.277C307.029 368.452 306.994 368.624 306.925 368.78C306.884 368.906 306.812 369.017 306.719 369.099L305.734 369.754C305.72 369.772 305.703 369.786 305.684 369.796C305.665 369.806 305.644 369.811 305.624 369.811C305.603 369.811 305.582 369.806 305.563 369.796C305.544 369.786 305.527 369.772 305.513 369.754C305.475 369.704 305.446 369.645 305.428 369.581C305.41 369.518 305.404 369.451 305.41 369.384V367.555C305.409 367.38 305.445 367.208 305.513 367.052C305.554 366.921 305.632 366.809 305.734 366.733L306.719 366.061ZM306.969 381.822C306.97 381.989 306.94 382.155 306.881 382.308C306.834 382.44 306.758 382.556 306.66 382.644L305.778 383.215C305.766 383.232 305.75 383.246 305.732 383.256C305.714 383.266 305.695 383.271 305.675 383.271C305.655 383.271 305.636 383.266 305.618 383.256C305.6 383.246 305.584 383.232 305.572 383.215C305.495 383.106 305.458 382.968 305.469 382.829V371.969C305.468 371.795 305.503 371.622 305.572 371.466C305.614 371.335 305.685 371.219 305.778 371.13L306.66 370.559C306.69 370.528 306.73 370.51 306.771 370.51C306.812 370.51 306.851 370.528 306.881 370.559C306.947 370.667 306.978 370.798 306.969 370.929V381.822Z" fill="#FAFAFA"/>
<path d="M314.705 376.702C314.704 376.875 314.674 377.046 314.616 377.205C314.575 377.336 314.498 377.448 314.396 377.524L313.513 378.112C313.486 378.143 313.449 378.16 313.411 378.16C313.372 378.16 313.335 378.143 313.308 378.112C313.231 378.003 313.194 377.865 313.205 377.726V371.818C313.25 371.12 313.138 370.421 312.881 369.787C312.675 369.367 312.352 369.3 311.896 369.602C311.441 369.951 311.104 370.466 310.94 371.062C310.694 371.854 310.575 372.69 310.587 373.53V379.455C310.586 379.627 310.556 379.798 310.499 379.958C310.463 380.096 310.384 380.216 310.278 380.294L309.41 380.864C309.397 380.882 309.38 380.897 309.361 380.906C309.342 380.916 309.321 380.921 309.3 380.921C309.279 380.921 309.259 380.916 309.24 380.906C309.221 380.897 309.204 380.882 309.19 380.864C309.122 380.758 309.09 380.626 309.102 380.495V369.636C309.099 369.463 309.129 369.291 309.19 369.132C309.226 368.994 309.304 368.875 309.41 368.797L310.278 368.226C310.292 368.208 310.309 368.194 310.328 368.184C310.347 368.174 310.367 368.169 310.388 368.169C310.409 368.169 310.43 368.174 310.449 368.184C310.468 368.194 310.485 368.208 310.499 368.226C310.564 368.34 310.595 368.476 310.587 368.612V369.132C310.78 368.621 311.017 368.132 311.293 367.672C311.535 367.248 311.863 366.897 312.249 366.648C312.583 366.369 313 366.249 313.411 366.313C313.573 366.359 313.726 366.445 313.857 366.563C313.989 366.682 314.097 366.831 314.175 367.001C314.389 367.455 314.528 367.95 314.587 368.461C314.666 369.129 314.705 369.801 314.705 370.475V376.702Z" fill="#FAFAFA"/>
<path d="M388.884 327.843L374.604 337.242L376.825 314.382C375.104 313.342 374.016 310.807 374.016 307.165C374.016 300.67 377.487 293.134 381.752 290.381C386.017 287.629 389.473 290.549 389.473 297.095C389.384 300.946 388.421 304.705 386.678 308.005L388.884 327.843Z" fill="#455A64"/>
<path d="M388.899 327.844L376.325 319.569L374.604 337.26L388.899 327.844Z" fill="#37474F"/>
<path d="M381.722 290.331C378.612 292.729 376.294 296.244 375.134 300.317L386.649 307.904C388.392 304.605 389.355 300.845 389.443 296.994C389.473 290.499 386.017 287.528 381.722 290.331Z" fill="#37474F"/>
<path d="M312.308 214.215C307.41 210.992 300.66 211.446 293.189 216.363C278.277 226.199 266.188 250.083 266.188 269.737C266.188 279.606 269.247 286.521 274.159 289.71L283.674 296.021C288.557 299.243 295.307 298.773 302.792 293.856C317.705 284.037 329.794 260.136 329.794 240.482C329.794 230.663 326.764 223.698 321.882 220.559" fill="#2A54C1"/>
<path d="M302.778 222.691C287.865 232.526 275.777 256.427 275.777 276.064C275.777 295.702 287.865 303.691 302.778 293.856C317.69 284.02 329.794 260.136 329.779 240.482C329.764 220.828 317.676 212.872 302.778 222.691Z" fill="#2A54C1"/>
<path d="M317.675 266.296V268.545C314.103 275.823 308.979 281.954 302.778 286.37C296.969 290.18 291.718 290.599 287.865 288.166V283.533C288.062 278.714 289.268 274.018 291.382 269.84C293.495 265.661 296.455 262.121 300.013 259.515L303.939 256.93C307.41 254.648 310.793 254.346 313.44 256.108C316.087 257.87 317.675 261.58 317.675 266.296Z" fill="#2A54C1"/>
<path opacity="0.4" d="M312.308 214.215L321.867 220.559C316.984 217.32 310.234 217.773 302.748 222.691C292.983 229.136 284.424 241.607 279.689 254.967L270.115 248.639C274.865 235.212 283.35 222.808 293.174 216.363C300.675 211.462 307.425 210.992 312.308 214.215Z" fill="white"/>
<path opacity="0.2" d="M283.336 295.769L274.174 289.71C269.262 286.521 266.203 279.639 266.203 269.737L275.777 276.081C275.836 285.648 278.659 292.462 283.336 295.769Z" fill="#00BE13"/>
<path opacity="0.1" d="M270.144 248.639L279.718 254.967C277.265 261.655 275.947 268.814 275.836 276.064L266.262 269.72C266.38 262.476 267.697 255.324 270.144 248.639Z" fill="#00BE13"/>
<path d="M299.366 255.873C298.454 255.884 297.555 255.618 296.763 255.101C295.808 254.374 295.043 253.367 294.549 252.185C294.054 251.004 293.849 249.691 293.954 248.387C294.079 245.329 294.843 242.35 296.184 239.698C297.525 237.047 299.403 234.801 301.66 233.147C302.567 232.321 303.671 231.826 304.828 231.728C305.986 231.629 307.142 231.932 308.146 232.596C309.15 233.259 309.955 234.253 310.456 235.448C310.958 236.642 311.131 237.981 310.955 239.29C310.828 242.348 310.062 245.326 308.721 247.977C307.381 250.628 305.504 252.875 303.248 254.53C302.081 255.362 300.741 255.825 299.366 255.873Z" fill="white"/>
<path d="M313.44 256.091C310.793 254.329 307.41 254.631 303.939 256.914L300.013 259.499C296.453 262.106 293.492 265.649 291.378 269.83C289.265 274.012 288.06 278.711 287.865 283.534V288.183C291.718 290.616 296.969 290.197 302.778 286.387C308.979 281.971 314.103 275.84 317.675 268.562V266.313C317.675 261.58 316.146 257.871 313.44 256.091Z" fill="white"/>
<path d="M96.7183 624.184C96.7183 624.184 98.6743 604.581 107.219 589.357C115.763 574.134 127.499 564.651 138.455 563.661C149.412 562.671 158.265 574.185 146.544 582.123C134.823 590.062 113.998 598.085 104.41 627.625L96.7183 624.184Z" fill="#00BE13"/>
<path opacity="0.1" d="M96.7183 624.184C96.7183 624.184 98.6743 604.581 107.219 589.357C115.763 574.134 127.499 564.651 138.455 563.661C149.412 562.671 158.265 574.185 146.544 582.123C134.823 590.062 113.998 598.085 104.41 627.625L96.7183 624.184Z" fill="#0057FF"/>
<path d="M99.9394 619.082H99.8217C99.6776 619.015 99.5626 618.885 99.502 618.722C99.4414 618.558 99.44 618.374 99.4982 618.209C111.057 585.732 133.058 572.154 143.088 569.535C143.164 569.515 143.242 569.513 143.318 569.527C143.394 569.542 143.467 569.573 143.533 569.62C143.598 569.667 143.655 569.728 143.7 569.8C143.745 569.872 143.777 569.953 143.794 570.039C143.812 570.125 143.814 570.214 143.801 570.301C143.788 570.388 143.761 570.471 143.72 570.546C143.679 570.621 143.625 570.686 143.562 570.737C143.499 570.788 143.428 570.825 143.353 570.844C133.529 573.429 111.955 586.756 100.586 618.73C100.53 618.863 100.435 618.971 100.317 619.035C100.2 619.099 100.066 619.116 99.9394 619.082Z" fill="white"/>
<path d="M158.442 619.467C157.456 622.018 155.015 623.361 152.75 624.402C150.486 625.442 148.015 626.567 146.78 628.984C144.309 633.851 148.368 640.733 145.721 645.449C145.097 646.399 144.312 647.194 143.413 647.789C142.513 648.383 141.517 648.763 140.485 648.907C138.794 649.259 137.073 649.259 135.367 649.427C134.55 649.415 133.735 649.342 132.926 649.209C130.549 648.603 128.065 648.904 125.852 650.065C122.455 652.247 121.44 657.131 119.352 660.907C118.076 663.131 116.395 665.014 114.422 666.427C112.45 667.841 110.234 668.752 107.925 669.098C106.454 669.316 103.513 669.635 102.042 668.645C101.927 668.58 101.819 668.501 101.719 668.41C101.498 668.141 101.234 667.789 101.116 667.604C101.108 667.565 101.108 667.525 101.116 667.487C100.513 664.952 101.498 662.334 101.542 659.716V659.246C101.439 656.208 101.366 653.187 101.307 650.165C101.18 644.571 101.131 638.976 101.16 633.381C101.16 629.756 100.807 625.795 102.16 622.388C103.631 618.628 107.337 618.544 108.734 614.868C109.293 613.391 109.587 611.83 110.131 610.337C110.972 608.165 112.319 606.298 114.025 604.94C115.731 603.581 117.732 602.783 119.808 602.633C126.264 602.263 132.044 608.222 138.5 607.668C140.162 607.517 141.794 606.929 143.441 606.594C148.662 605.469 154.706 607.164 157.648 612.216C158.293 613.257 158.703 614.463 158.842 615.728C158.981 616.993 158.843 618.277 158.442 619.467Z" fill="#00BE13"/>
<path d="M100.469 655.856C100.33 655.809 100.212 655.703 100.141 655.559C100.069 655.414 100.05 655.244 100.086 655.084C108.999 616.917 144.206 611.446 152.486 612.083C152.559 612.088 152.63 612.108 152.695 612.145C152.761 612.181 152.82 612.232 152.868 612.295C152.916 612.357 152.952 612.43 152.975 612.509C152.998 612.588 153.006 612.672 153 612.755C152.986 612.918 152.916 613.068 152.806 613.175C152.697 613.281 152.556 613.335 152.412 613.325C144.338 612.671 109.866 618.058 101.145 655.42C101.104 655.579 101.011 655.713 100.884 655.794C100.758 655.876 100.609 655.898 100.469 655.856Z" fill="white"/>
<path d="M139.632 636.52C139.521 636.503 139.417 636.444 139.338 636.352C136.083 633.133 132.245 630.773 128.099 629.441C123.953 628.11 119.6 627.839 115.352 628.648C115.208 628.664 115.065 628.617 114.951 628.517C114.837 628.418 114.759 628.273 114.734 628.111C114.713 627.947 114.748 627.78 114.833 627.645C114.919 627.51 115.046 627.418 115.19 627.39C119.621 626.548 124.16 626.835 128.483 628.231C132.805 629.627 136.803 632.096 140.191 635.463C140.243 635.521 140.284 635.59 140.313 635.666C140.341 635.743 140.355 635.825 140.355 635.908C140.355 635.991 140.341 636.073 140.313 636.149C140.284 636.225 140.243 636.295 140.191 636.352C140.124 636.443 140.035 636.508 139.935 636.538C139.835 636.568 139.729 636.562 139.632 636.52Z" fill="white"/>
<path d="M511.488 72.9457L516.583 75.3135V61.728C516.583 50.9372 523.68 48.3559 531.386 53.7513C539.108 59.1467 545.357 72.2471 545.357 83.0378V84.9786C590.583 85.4822 547.565 84.4829 548.675 84.6913C541.184 66.1971 550.841 85.4092 551.765 86.1819C554.691 88.4933 579.008 90.6375 580.754 94.3031C582.499 97.9688 533.471 128.665 563.895 104.288L589.627 107.617L624.233 119.121L621.127 123.149C623.051 124.671 572.45 116.71 573.599 119.121C574.749 121.532 580.627 121.848 580.754 124.628C580.754 129.752 572.576 134.216 568.924 131.655L511.488 91.4609C509.562 89.9427 507.96 87.894 506.813 85.4822C505.666 83.0704 505.006 80.364 504.887 77.5842C504.887 72.48 507.819 70.4033 511.488 72.9457Z" fill="#F0F0F0"/>
<path d="M593.031 66.6432L602.276 73.1061C602.225 72.6167 602.198 72.1242 602.195 71.6311V68.3899C602.195 62.5676 605.528 60.2774 609.661 63.1692C611.437 64.4866 612.957 66.2544 614.115 68.3511C614.788 61.0926 619.498 58.3949 625.202 62.3735C628.461 64.9426 631.175 68.4057 633.123 72.4823C635.072 76.559 636.2 81.1343 636.416 85.8376V90.6896C636.458 92.6283 636.134 94.5529 635.471 96.3179L643.161 101.674C644.36 102.637 645.355 103.927 646.067 105.441C646.78 106.954 647.189 108.649 647.263 110.389C647.263 113.591 645.404 114.891 643.113 113.3L593.031 78.3656C591.82 77.4096 590.813 76.1199 590.092 74.602C589.37 73.0841 588.956 71.3811 588.882 69.632C588.882 66.3521 590.74 65.0518 593.031 66.6432Z" fill="#F0F0F0"/>
<path d="M564.627 330.915C558.45 342.832 552.508 353.188 548.332 358.156C540.405 362.352 521.787 368.83 514.507 369.904C513.228 370.09 511.934 369.745 510.86 368.931C507.992 366.783 505.771 366.43 502.756 365.238C500.389 364.315 499.389 363.023 498.947 363.56C498.492 364.17 498.263 364.959 498.309 365.758C498.356 366.558 498.675 367.305 499.197 367.84C500.329 369.067 501.582 370.137 502.933 371.029C499.704 371.943 496.335 372.012 493.079 371.23C486.77 369.334 483.8 372.791 488.065 380.613C489.535 383.399 495.594 387.88 507.771 386.672C512.115 386.404 516.442 385.844 520.728 384.993C532.405 382.14 545.391 379.388 553.376 376.601C556.347 375.268 559.005 373.165 561.141 370.458C574.568 352.986 579.024 340.532 584.907 329.22L584.407 310.757C574.877 310.388 569.789 320.945 564.627 330.915Z" fill="#FFA8A7"/>
<path d="M586.04 310.388C583.276 309.945 580.459 310.372 577.893 311.623C575.327 312.874 573.11 314.902 571.48 317.488C564.95 327.038 553.391 349.965 553.391 349.965C553.391 349.965 557.171 361.462 567.377 363.392L583.775 338.115C583.775 338.115 591.54 320.559 586.04 310.388Z" fill="#455A64"/>
<path d="M621.497 568.091H610.805V589.844H621.497V568.091Z" fill="#FFA8A7"/>
<path d="M584.436 566.934L573.759 567.37L573.215 544.343L584.436 543.906V566.934Z" fill="#FFA8A7"/>
<path d="M622.997 379.79C622.997 391.908 621.438 489.541 621.438 489.541C621.673 493.032 624.379 499.478 623.835 512.888C623.026 531.099 621.953 578.967 621.953 578.967C620.117 580.039 618.092 580.62 616.031 580.667C613.97 580.713 611.926 580.224 610.055 579.236C610.055 579.236 601.378 512.099 599.466 494.123C597.79 478.363 593.496 426.198 593.496 426.198L587.716 487.863C588.941 494.479 589.386 501.253 589.039 508.004C588.539 516.396 585.098 559.833 585.098 559.833C583.251 561.077 581.18 561.824 579.042 562.019C576.905 562.214 574.756 561.851 572.759 560.958C572.759 560.958 566.671 495.5 566.553 487.813C566.406 479.085 570.112 379.689 570.112 379.689L622.997 379.79Z" fill="#37474F"/>
<path d="M610.805 583.566V581.754C609.776 582.274 607.408 593.049 603.158 597.648C599.79 601.307 595.202 605.52 594.025 609.599C592.849 613.677 600.422 616.178 603.584 615.523C607.232 614.751 613.585 611.68 615.173 608.81C616.761 605.94 617.511 601.777 618.806 599.696C620.1 597.615 623.085 595.298 623.776 592.882C623.992 590.62 623.786 588.332 623.173 586.168C622.673 583.919 622.144 581.452 621.497 581.67V583.046C619.989 584.458 618.094 585.219 616.144 585.194C614.585 585.345 610.79 584.976 610.805 583.566Z" fill="#263238"/>
<path d="M573.642 563.442C573.083 563.442 572.627 564.399 571.407 565.977C569.592 568.156 567.469 569.971 565.127 571.348C561.127 573.731 553.362 577.39 549.818 579.287C547.612 580.462 547.715 583.617 549.994 585.413C552.274 587.209 557.759 588.501 564.348 586.756C567.936 585.799 572.613 581.855 575.583 582.073C578.554 582.291 584.069 582.224 586.26 580.394C588.452 578.565 587.569 574.772 586.952 571.499C586.275 567.907 585.481 562.318 584.437 562.57V563.829C583.157 566.145 576.525 567.085 573.701 565.389L573.642 563.442Z" fill="#263238"/>
<path d="M593.496 426.198C587.934 424.121 582.849 420.651 578.613 416.044C578.613 416.044 581.554 422.439 590.025 428.397L588.201 483.466L593.496 426.198Z" fill="#263238"/>
<path d="M617.026 312.167C617.026 312.167 625.85 314.483 625.218 332.677L623.379 361.63V405.1C615.526 415.272 580.73 414.533 568.745 404.295C568.745 404.295 570.098 352.851 570.906 333.046C571.48 318.981 574.318 311.898 586.437 310.354L601.334 311.093L617.026 312.167Z" fill="#060B26"/>
<path d="M605.79 274.369C605.841 276.805 605.469 279.228 604.695 281.499C603.921 283.77 602.762 285.843 601.282 287.6C599.803 289.357 598.034 290.762 596.076 291.735C594.119 292.708 592.012 293.229 589.878 293.268C581.054 293.268 575.877 284.574 573.965 274.369C570.436 255.688 581.083 255.453 589.878 255.453C594.185 255.555 598.282 257.604 601.266 261.151C604.249 264.699 605.877 269.453 605.79 274.369Z" fill="#263238"/>
<path d="M613.908 282.006C613.908 282.006 611.467 295.635 610.482 297.884C609.862 299.237 608.808 300.265 607.54 300.754L607.717 291.17L613.908 282.006Z" fill="#263238"/>
<path d="M610.835 262.486C610.835 262.486 612.585 261.982 614.452 265.306C616.041 268.142 616.408 274.52 613.908 282.09L609.305 282.728L610.835 262.486Z" fill="#263238"/>
<path d="M612.526 265.255L618.173 265.373C618.212 264.956 618.175 264.535 618.064 264.136C617.953 263.737 617.771 263.368 617.529 263.052C617.288 262.737 616.991 262.482 616.659 262.304C616.327 262.126 615.966 262.028 615.6 262.016C614.827 262.029 614.087 262.366 613.519 262.964C612.952 263.562 612.598 264.378 612.526 265.255Z" fill="#263238"/>
<path d="M613.217 263.728L617.394 259.146C617.153 258.822 616.856 258.559 616.522 258.373C616.187 258.186 615.823 258.081 615.451 258.064C615.079 258.046 614.708 258.117 614.362 258.272C614.015 258.426 613.701 258.661 613.438 258.961C612.884 259.58 612.553 260.413 612.513 261.296C612.472 262.179 612.723 263.047 613.217 263.728Z" fill="#263238"/>
<path d="M607.923 282.644C608.849 283.298 610.158 281.2 611.305 279.773C612.452 278.347 616.011 277.038 617.864 281.67C619.717 286.303 616.556 290.885 613.908 292.395C609.158 295.081 607.658 291.17 607.658 291.17L607.261 312.754C600.584 324.503 585.437 324.134 590.893 312.184V305.621C588.648 306.047 586.369 306.182 584.098 306.024C580.392 305.352 578.069 301.878 576.936 297.111C575.142 289.458 574.451 283.281 575.98 268.226C577.657 251.744 593.805 251.559 602.452 258.156C611.099 264.752 607.923 282.644 607.923 282.644Z" fill="#FFA8A7"/>
<path d="M587.804 265.658C591.657 265.222 595.466 264.316 599.334 263.98C600.168 263.865 601.013 263.91 601.834 264.114C604.776 265.037 604.423 268.965 604.893 271.701C605.702 276.434 606.364 284.44 607.923 284.473C608.393 284.473 610.158 280.999 611.305 279.757C611.936 278.687 612.292 277.437 612.335 276.148C612.629 274.202 612.776 272.204 612.908 270.224C613.026 268.545 613.173 266.867 613.173 265.188C613.24 263.292 613.107 261.393 612.776 259.532C612.407 257.949 611.7 256.496 610.717 255.303L610.423 254.933C608.484 252.62 606.132 250.811 603.525 249.63C599.776 248.026 595.843 247.048 591.848 246.726C587.86 246.403 583.888 245.843 579.951 245.048C579.725 244.972 579.485 244.972 579.26 245.048C579.1 245.148 578.965 245.294 578.867 245.469C578.77 245.645 578.713 245.847 578.701 246.055C578.54 247.098 578.64 248.171 578.992 249.152C579.343 250.132 579.931 250.978 580.686 251.593C578.024 251.828 574.965 250.251 572.406 249.445C572.199 249.345 571.977 249.293 571.752 249.293C571.527 249.293 571.305 249.345 571.098 249.445C570.841 249.65 570.658 249.954 570.583 250.301C570.397 251.09 570.371 251.916 570.509 252.718C570.744 255.147 571.535 257.463 572.804 259.431C574.786 262.377 577.586 264.466 580.745 265.356C583.071 265.868 585.451 265.97 587.804 265.658Z" fill="#263238"/>
<path d="M590.907 305.621C590.907 305.621 599.172 303.641 602.055 301.811C603.772 300.739 605.166 299.101 606.055 297.112C605.621 299.111 604.846 300.993 603.775 302.65C601.672 305.873 590.907 308.223 590.907 308.223V305.621Z" fill="#F28F8F"/>
<path d="M592.893 280.176C592.877 280.695 593.041 281.199 593.35 281.579C593.658 281.96 594.086 282.186 594.54 282.207C594.9 282.241 595.261 282.15 595.575 281.946C595.889 281.742 596.142 281.434 596.3 281.063C596.458 280.692 596.515 280.275 596.462 279.867C596.409 279.459 596.249 279.078 596.004 278.776C595.758 278.473 595.438 278.262 595.086 278.17C594.733 278.078 594.365 278.11 594.028 278.262C593.692 278.413 593.404 278.677 593.201 279.019C592.998 279.36 592.891 279.764 592.893 280.176Z" fill="#263238"/>
<path d="M595.54 272.036L599.084 274.369C599.342 273.794 599.4 273.129 599.248 272.507C599.095 271.885 598.743 271.351 598.26 271.012C598.025 270.862 597.766 270.769 597.497 270.739C597.229 270.71 596.958 270.744 596.703 270.84C596.447 270.937 596.211 271.093 596.011 271.299C595.811 271.505 595.65 271.756 595.54 272.036Z" fill="#263238"/>
<path d="M591.643 293.788L587.863 295.467C587.939 295.763 588.068 296.037 588.241 296.274C588.414 296.511 588.627 296.705 588.869 296.843C589.11 296.982 589.374 297.062 589.644 297.079C589.913 297.097 590.183 297.051 590.437 296.944C590.951 296.691 591.362 296.224 591.586 295.638C591.81 295.052 591.83 294.391 591.643 293.788Z" fill="#F28F8F"/>
<path d="M577.686 273.765L580.922 270.811C580.777 270.553 580.586 270.333 580.361 270.165C580.137 269.997 579.884 269.885 579.619 269.836C579.354 269.786 579.083 269.802 578.823 269.88C578.564 269.958 578.322 270.098 578.113 270.291C577.68 270.709 577.398 271.294 577.319 271.935C577.241 272.576 577.371 273.227 577.686 273.765Z" fill="#263238"/>
<path d="M579.113 279.623C579.139 279.99 579.258 280.341 579.455 280.632C579.653 280.923 579.92 281.143 580.225 281.264C580.53 281.384 580.859 281.401 581.173 281.312C581.486 281.222 581.769 281.031 581.989 280.76C582.208 280.49 582.354 280.153 582.408 279.789C582.462 279.426 582.422 279.053 582.293 278.715C582.165 278.377 581.953 278.09 581.683 277.887C581.413 277.685 581.098 277.576 580.775 277.575C580.547 277.584 580.324 277.644 580.117 277.751C579.91 277.859 579.724 278.013 579.57 278.203C579.415 278.394 579.295 278.617 579.217 278.861C579.138 279.104 579.103 279.363 579.113 279.623Z" fill="#263238"/>
<path d="M587.981 278.045L587.79 289.978L581.848 288.434L587.981 278.045Z" fill="#F28F8F"/>
<path d="M446.886 377.994L456.107 371.918L459.755 366.866L450.548 372.942L446.886 377.994Z" fill="#3FAF4A"/>
<path opacity="0.4" d="M446.886 377.994L456.107 371.918L459.755 366.866L450.548 372.942L446.886 377.994Z" fill="#00BE13"/>
<path d="M471.961 394.51L481.182 388.434L488.874 380.663L479.667 386.722L471.961 394.51Z" fill="#3FAF4A"/>
<path opacity="0.4" d="M471.961 394.51L481.182 388.434L488.874 380.663L479.667 386.722L471.961 394.51Z" fill="#00BE13"/>
<path d="M550.288 415.473C552.468 418.809 553.787 422.774 554.097 426.92C551.926 423.579 550.608 419.617 550.288 415.473ZM571.715 415.792C568.612 391.707 557.273 367.89 543.773 358.978C537.287 354.698 531.287 354.547 526.478 357.753L517.801 363.459L517.316 363.795C516.929 364.038 516.556 364.307 516.198 364.601C515.485 365.16 514.816 365.789 514.198 366.48L513.904 366.799C513.639 367.101 513.36 367.454 513.11 367.79C512.86 368.125 512.477 368.646 512.183 369.099C511.559 370.037 510.994 371.024 510.492 372.053C510.227 372.573 509.977 373.127 509.742 373.731L433.959 323.815L424.753 329.874V336.588L425.532 337.091L426.268 337.578V338.921L424.797 339.911V343.805L435.93 370.66L446.93 377.927L450.592 372.892L460.299 379.522L465.872 390.415L472.02 394.46L479.711 386.672L489.153 392.899L492.329 407.853L508.198 418.327C508.982 422.133 509.964 425.882 511.139 429.555C511.242 429.924 511.374 430.311 511.507 430.73C516.772 446.507 525.14 460.018 534.581 466.245C535.713 467.011 536.898 467.668 538.125 468.209C538.774 468.503 539.437 468.756 540.111 468.964C540.699 469.143 541.287 469.294 541.876 469.418C543.733 469.804 545.636 469.804 547.493 469.418L548.258 469.199C548.624 469.115 548.983 468.997 549.332 468.847L550.155 468.478C550.447 468.358 550.728 468.206 550.994 468.024C551.265 467.89 551.531 467.739 551.788 467.571L552.17 467.303C552.239 467.277 552.304 467.237 552.361 467.185C554.464 465.809 559.641 462.385 561.053 461.479C568.053 456.846 572.583 445.131 572.583 428.565C572.571 424.289 572.281 420.019 571.715 415.792Z" fill="#3FAF4A"/>
<path d="M547.597 435.799C543.949 433.399 541.008 426.282 541.008 419.904C541.008 413.526 543.949 410.287 547.597 412.67C551.244 415.054 554.17 422.187 554.17 428.582C554.17 434.976 551.229 438.199 547.597 435.799ZM562.494 421.851C559.406 397.783 548.067 373.949 534.552 365.054C528.287 360.925 522.493 360.623 517.787 363.459L517.301 363.795C516.915 364.038 516.542 364.307 516.184 364.601C515.471 365.16 514.802 365.789 514.183 366.48L513.889 366.799C513.625 367.101 513.345 367.454 513.095 367.79C512.845 368.125 512.463 368.646 512.169 369.099C511.544 370.037 510.979 371.024 510.477 372.053C510.213 372.573 509.963 373.127 509.727 373.731C508.356 376.975 507.367 380.412 506.786 383.953L424.739 329.874V336.588L425.518 337.091L426.253 337.578V338.921L424.783 339.911V343.805L435.915 370.66L446.916 377.927L450.578 372.892L460.284 379.522L465.858 390.415L472.005 394.46L479.697 386.672L489.138 392.899L492.315 407.853L508.198 418.327C508.982 422.133 509.964 425.882 511.139 429.555C511.242 429.924 511.375 430.311 511.507 430.73C516.772 446.507 525.14 460.018 534.581 466.245C535.713 467.011 536.898 467.668 538.126 468.209C538.774 468.503 539.437 468.756 540.111 468.964C540.699 469.143 541.288 469.294 541.876 469.417C543.733 469.804 545.636 469.804 547.494 469.417L548.258 469.199C548.624 469.115 548.983 468.997 549.332 468.847L550.156 468.478C550.447 468.358 550.728 468.206 550.994 468.024C551.266 467.89 551.531 467.739 551.788 467.571L552.17 467.303C552.24 467.277 552.304 467.237 552.362 467.185C559.068 462.351 563.377 450.804 563.377 434.641C563.352 430.359 563.057 426.085 562.494 421.851Z" fill="#060B26"/>
<path opacity="0.4" d="M554.17 428.564C554.17 434.959 551.229 438.198 547.597 435.798C543.964 433.398 541.008 426.299 541.008 419.904C541.008 413.509 543.949 410.27 547.597 412.67C548.647 413.399 549.561 414.357 550.288 415.49C550.604 419.634 551.923 423.597 554.097 426.936C554.151 427.477 554.175 428.021 554.17 428.564Z" fill="#00BE13"/>
<path opacity="0.4" d="M572.554 428.549C572.554 445.115 568.024 456.83 561.024 461.462C559.553 462.369 554.435 465.793 552.332 467.169C559.039 462.335 563.348 450.788 563.348 434.625C563.332 430.349 563.047 426.081 562.495 421.852C559.406 397.783 548.067 373.95 534.552 365.054C528.287 360.925 522.493 360.623 517.787 363.46L526.464 357.753C531.273 354.547 537.273 354.699 543.758 358.978C557.274 367.891 568.612 391.708 571.701 415.793C572.261 420.015 572.546 424.278 572.554 428.549Z" fill="white"/>
<path d="M563.347 434.59C563.347 450.753 559.038 462.301 552.332 467.135C554.435 465.758 559.612 462.334 561.024 461.428C568.024 456.795 572.554 445.08 572.554 428.514C572.554 427.91 572.554 427.289 572.554 426.668L563.347 432.744C563.333 433.398 563.347 434.003 563.347 434.59Z" fill="#3FAF4A"/>
<path opacity="0.1" d="M563.347 434.59C563.347 450.753 559.038 462.301 552.332 467.135C554.435 465.758 559.612 462.334 561.024 461.428C568.024 456.795 572.554 445.08 572.554 428.514C572.554 427.91 572.554 427.289 572.554 426.668L563.347 432.744C563.333 433.398 563.347 434.003 563.347 434.59Z" fill="#00BE13"/>
<path opacity="0.15" d="M507.139 390.817V394.225L424.753 339.945L426.268 338.938V337.528L507.139 390.817Z" fill="#00BE13"/>
<path opacity="0.15" d="M507.139 392.227V394.225L424.753 339.945L426.268 338.938V338.921L507.139 392.227Z" fill="#00BE13"/>
<path opacity="0.15" d="M542.964 461.445C539.842 461.353 536.797 460.316 534.14 458.441C520.713 449.596 509.786 423.278 509.786 399.781C509.786 386.068 513.419 375.83 519.757 371.65C524.169 368.73 529.39 369.099 534.875 372.708C548.288 381.553 559.215 407.954 559.215 431.452C559.215 445.148 555.582 455.403 549.244 459.566C547.332 460.812 545.166 461.46 542.964 461.445ZM526.125 371.399C524.165 371.386 522.237 371.965 520.537 373.077C514.757 376.887 511.301 386.874 511.301 399.764C511.301 422.724 521.89 448.438 534.92 456.964C539.905 460.321 544.626 460.623 548.553 458.038C554.332 454.228 557.788 444.258 557.788 431.368C557.788 408.391 547.2 382.694 534.184 374.151C531.752 372.462 528.972 371.536 526.125 371.466V371.399Z" fill="#00BE13"/>
<path opacity="0.4" d="M509.668 373.698C508.297 376.942 507.308 380.379 506.727 383.919L424.68 329.841L433.886 323.782L509.668 373.698Z" fill="white"/>
<path d="M616.306 378.951C620.6 369.67 625.512 348.824 627.953 338.3C631.424 323.362 625.806 313.963 619.423 313.577C615.438 314.282 602.305 368.78 602.305 368.78C600.834 370.106 580.878 381.67 574.466 384.574C573.319 385.069 572.053 385.069 570.907 384.574C567.833 383.298 565.73 383.533 562.715 383.198C560.347 382.929 559.156 381.972 558.847 382.543C558.567 383.251 558.531 384.054 558.746 384.792C558.961 385.529 559.412 386.146 560.009 386.521C561.307 387.384 562.689 388.071 564.127 388.569C561.55 389.461 558.863 389.875 556.171 389.794C549.994 389.643 547.773 392.698 552.568 399.864C555.509 404.329 560.377 405.739 571.245 401.459C574.363 400.217 578.598 397.817 582.554 396.189C590.702 392.832 592.849 392.429 599.055 390.029C608.099 386.538 614.394 383.08 616.306 378.951Z" fill="#FFA8A7"/>
<path d="M617.026 312.167C620.776 312.755 624.379 313.711 626.6 317.202C628.821 320.694 630.6 325.595 628.423 338.938C626.757 348.322 624.526 357.564 621.747 366.598C621.747 366.598 613.011 370.861 603.731 360.052L610.114 331.889C610.114 331.889 611.143 313.577 617.026 312.167Z" fill="#455A64"/>
</svg>
